# xmcd CD database file
#
# Track frame offsets:
#	150
#	31143
#	63505
#	89243
#	130127
#	162270
#	183189
#	228392
#	277137
#
# Disc length: 4485 seconds
#
# Revision: 1
# Processed by: cddbd v1.5.2PL0 Copyright (c) Steve Scherf et al.
# Submitted via: CDex 1.70beta2
#
DISCID=7c118309
DTITLE=上原ひろみ - Brain
DYEAR=2004
DGENRE=Jazz
TTITLE0=Kung-Fu World Champion
TTITLE1=IF...
TTITLE2=Wind Song
TTITLE3=Brain
TTITLE4=Desert On The Moon
TTITLE5=Green Tea Farm
TTITLE6=Keytalk
TTITLE7=Legend Of The Purple Valley
TTITLE8=Another MIND
EXTD=YEAR: 2004
EXTT0=
EXTT1=
EXTT2=
EXTT3=
EXTT4=
EXTT5=
EXTT6=
EXTT7=
EXTT8=
PLAYORDER=
